<svg xmlns="http://www.w3.org/2000/svg" xmlns:xlink="http://www.w3.org/1999/xlink" id="Layer_1" x="0px" y="0px" viewBox="0 0 375 812" style="enable-background:new 0 0 375 812;" xml:space="preserve"><style type="text/css">	.st0{display:none;fill:#2E2266;stroke:#000000;stroke-miterlimit:10;stroke-dasharray:2.5;}	.st1{display:none;fill:none;stroke:#000000;stroke-miterlimit:10;stroke-dasharray:2.5;}	.st2{fill:none;stroke:#FFFFFF;stroke-miterlimit:10;stroke-dasharray:2.5;}	.st3{display:none;fill:none;stroke:#FFFFFF;stroke-miterlimit:10;stroke-dasharray:2.5;}	.st4{fill:#FFFFFF;}	.st5{fill:#F15B2B;}	.st6{fill:#F89521;}	.st7{fill:#EF4237;}	.st8{opacity:0.3;fill:#424143;}	.st9{opacity:0.2;fill:#212A3C;}	.st10{opacity:0.3;fill:url(#SVGID_1_);}	.st11{opacity:0.3;fill:#FFFFFF;}	.st12{fill:#E93433;}	.st13{opacity:0.3;fill:url(#SVGID_2_);}	.st14{fill:#FFF4EA;}	.st15{fill:#DB8231;}	.st16{fill:#FED19F;}	.st17{fill:#FEE1C5;}	.st18{fill:#F9B774;}	.st19{opacity:0.5;fill:url(#SVGID_3_);}	.st20{opacity:0.4;fill:#FFFFFF;}	.st21{fill:#F58466;}	.st22{fill:#E15C41;}	.st23{opacity:0.3;fill:url(#SVGID_4_);}	.st24{fill:#1A6FA6;}	.st25{fill:#29AAE1;}	.st26{fill:#60B2E0;}	.st27{fill:#A5DCF5;}	.st28{fill:#0F5880;}	.st29{opacity:0.3;fill:url(#SVGID_5_);}	.st30{fill:#FDC686;}	.st31{fill:#FBB042;}	.st32{opacity:0.3;fill:url(#SVGID_6_);}	.st33{font-family:'Poppins-SemiBold';}	.st34{font-size:10px;}	.st35{fill:url(#SVGID_7_);}	.st36{fill:url(#SVGID_8_);}	.st37{opacity:0.5;fill:url(#SVGID_9_);}	.st38{opacity:0.5;fill:url(#SVGID_10_);}	.st39{fill:url(#SVGID_11_);}	.st40{fill:url(#SVGID_12_);}	.st41{opacity:0.5;fill:url(#SVGID_13_);}	.st42{opacity:0.5;fill:url(#SVGID_14_);}	.st43{fill:url(#SVGID_15_);}	.st44{fill:url(#SVGID_16_);}	.st45{opacity:0.5;fill:url(#SVGID_17_);}	.st46{opacity:0.5;fill:url(#SVGID_18_);}	.st47{fill:url(#SVGID_19_);}	.st48{fill:url(#SVGID_20_);}	.st49{opacity:0.5;fill:url(#SVGID_21_);}	.st50{opacity:0.5;fill:url(#SVGID_22_);}	.st51{fill:url(#SVGID_23_);}	.st52{fill:url(#SVGID_24_);}	.st53{opacity:0.5;fill:url(#SVGID_25_);}	.st54{opacity:0.5;fill:url(#SVGID_26_);}	.st55{fill:url(#SVGID_27_);}	.st56{fill:url(#SVGID_28_);}	.st57{opacity:0.5;fill:url(#SVGID_29_);}	.st58{opacity:0.5;fill:url(#SVGID_30_);}</style><rect class="st0" width="375" height="812"/><polyline class="st1" points="-256.8,33.1 -256.8,152.3 -241.6,208.1 -241.6,265.4 -230,277.1 -149.2,277.1 -138,288.3 -138,442  -253,442 -268.2,426.8 -268.2,363.4 -281.6,350 -306.2,350 -320.7,364.5 -320.7,504 -309.9,514.9 -170.8,514.9 -157.5,528.2  -157.5,629.9 -282.1,629.9 -294.9,642.6 -294.9,722.1 -268.6,748.4 -268.6,795.1 "/><polyline class="st2" points="137.5,33.1 137.5,120.9 150.5,176.8 150.5,228.7 163.1,241.3 250.5,241.3 260.5,251.3 260.5,457.3  247.7,470.1 88.2,470.1 74,455.9 74,363.8 57.7,347.5 36.2,347.5 22.2,361.5 22.2,498.9 37.7,514.3 216.7,514.3 230.5,528  230.5,583.3 218.4,595.3 156.4,595.3 146.5,605.2 146.5,688.5 174,716 174,774.2 "/><polyline class="st3" points="524.5,35.4 524.5,123.3 537.5,179.2 537.5,231.1 550,243.7 637.5,243.7 647.4,253.6 647.4,459.7  634.6,472.4 475.1,472.4 460.9,458.3 460.9,366.2 444.7,349.9 423.2,349.9 409.2,363.9 409.2,501.2 424.6,516.7 603.7,516.7  617.4,530.4 617.4,585.7 605.4,597.7 543.3,597.7 533.4,607.6 533.4,690.8 561,718.4 561,776.6 "/><g><circle class="st4" cx="137" cy="32.4" r="3.5"/><g><path class="st4" d="M130.4,31.9c0.1-1.1,0.4-2.1,1-3.1l0.8,0.5c-0.5,0.8-0.8,1.7-0.8,2.6L130.4,31.9z M130.6,34l1-0.3   c0.2,0.9,0.7,1.7,1.3,2.4l-0.7,0.7C131.4,36.1,130.9,35.1,130.6,34z M132.9,27.2c0.8-0.7,1.9-1.2,2.9-1.3l0.2,1   c-0.9,0.2-1.8,0.6-2.5,1.1L132.9,27.2z M133.9,38.2l0.5-0.9c0.8,0.4,1.7,0.7,2.6,0.7v1C135.9,38.9,134.8,38.7,133.9,38.2z    M137.2,37.9c0.9,0,1.8-0.3,2.6-0.8l0.5,0.9c-0.9,0.6-2,0.9-3.1,0.9L137.2,37.9z M137.8,26.8l0.1-1c1.1,0.2,2.1,0.6,3,1.2   l-0.6,0.8C139.6,27.3,138.7,27,137.8,26.8z M141.3,36c0.6-0.7,1-1.5,1.2-2.4l1,0.2c-0.2,1.1-0.7,2.1-1.4,2.9L141.3,36z    M141.6,29.2l0.8-0.6c0.6,0.9,1,1.9,1.1,3l-1,0.1C142.4,30.8,142.1,29.9,141.6,29.2z"/></g></g><g><circle class="st4" cx="149.8" cy="177" r="3.5"/><g><path class="st4" d="M143.3,176.6c0.1-1.1,0.4-2.1,1-3.1l0.8,0.5c-0.5,0.8-0.8,1.7-0.8,2.6L143.3,176.6z M143.5,178.7l1-0.3   c0.2,0.9,0.7,1.7,1.3,2.4l-0.7,0.7C144.3,180.7,143.7,179.8,143.5,178.7z M145.7,171.9c0.8-0.7,1.9-1.2,2.9-1.3l0.2,1   c-0.9,0.2-1.8,0.6-2.5,1.1L145.7,171.9z M146.7,182.8l0.5-0.9c0.8,0.4,1.7,0.7,2.6,0.7v1C148.8,183.6,147.7,183.4,146.7,182.8z    M150.1,182.6c0.9,0,1.8-0.3,2.6-0.8l0.5,0.9c-0.9,0.6-2,0.9-3.1,0.9L150.1,182.6z M150.6,171.5l0.1-1c1.1,0.2,2.1,0.6,3,1.2   l-0.6,0.8C152.4,172,151.5,171.6,150.6,171.5z M154.1,180.7c0.6-0.7,1-1.5,1.2-2.4l1,0.2c-0.2,1.1-0.7,2.1-1.4,2.9L154.1,180.7z    M154.4,173.8l0.8-0.6c0.6,0.9,1,1.9,1.1,3l-1,0.1C155.3,175.5,155,174.6,154.4,173.8z"/></g></g><g><circle class="st4" cx="260.5" cy="301.7" r="3.5"/><g><path class="st4" d="M253.9,301.2c0.1-1.1,0.4-2.1,1-3.1l0.8,0.5c-0.5,0.8-0.8,1.7-0.8,2.6L253.9,301.2z M254.1,303.4l1-0.3   c0.2,0.9,0.7,1.7,1.3,2.4l-0.7,0.7C254.9,305.4,254.4,304.4,254.1,303.4z M256.3,296.6c0.8-0.7,1.9-1.2,2.9-1.3l0.2,1   c-0.9,0.2-1.8,0.6-2.5,1.1L256.3,296.6z M257.4,307.5l0.5-0.9c0.8,0.4,1.7,0.7,2.6,0.7v1C259.4,308.3,258.3,308,257.4,307.5z    M260.7,307.3c0.9,0,1.8-0.3,2.6-0.8l0.5,0.9c-0.9,0.6-2,0.9-3.1,0.9L260.7,307.3z M261.3,296.2l0.1-1c1.1,0.2,2.1,0.6,3,1.2   l-0.6,0.8C263,296.7,262.2,296.3,261.3,296.2z M264.7,305.3c0.6-0.7,1-1.5,1.2-2.4l1,0.2c-0.2,1.1-0.7,2.1-1.4,2.9L264.7,305.3z    M265.1,298.5l0.8-0.6c0.6,0.9,1,1.9,1.1,3l-1,0.1C265.9,300.2,265.6,299.3,265.1,298.5z"/></g></g><g><circle class="st4" cx="253.3" cy="554.6" r="3.5"/><g><path class="st4" d="M246.7,554.1c0.1-1.1,0.4-2.1,1-3.1l0.8,0.5c-0.5,0.8-0.8,1.7-0.8,2.6L246.7,554.1z M246.9,556.2l1-0.3   c0.2,0.9,0.7,1.7,1.3,2.4l-0.7,0.7C247.7,558.3,247.2,557.3,246.9,556.2z M249.1,549.4c0.8-0.7,1.9-1.2,2.9-1.3l0.2,1   c-0.9,0.2-1.8,0.6-2.5,1.1L249.1,549.4z M250.2,560.4l0.5-0.9c0.8,0.4,1.7,0.7,2.6,0.7v1C252.2,561.2,251.1,560.9,250.2,560.4z    M253.5,560.2c0.9,0,1.8-0.3,2.6-0.8l0.5,0.9c-0.9,0.6-2,0.9-3.1,0.9L253.5,560.2z M254.1,549l0.1-1c1.1,0.2,2.1,0.6,3,1.2   l-0.6,0.8C255.9,549.5,255,549.2,254.1,549z M257.5,558.2c0.6-0.7,1-1.5,1.2-2.4l1,0.2c-0.2,1.1-0.7,2.1-1.4,2.9L257.5,558.2z    M257.9,551.4l0.8-0.6c0.6,0.9,1,1.9,1.1,3l-1,0.1C258.7,553,258.4,552.1,257.9,551.4z"/></g></g><g><circle class="st4" cx="146.6" cy="635.1" r="3.5"/><g><path class="st4" d="M140,634.7c0.1-1.1,0.4-2.1,1-3.1l0.8,0.5c-0.5,0.8-0.8,1.7-0.8,2.6L140,634.7z M140.2,636.8l1-0.3   c0.2,0.9,0.7,1.7,1.3,2.4l-0.7,0.7C141,638.8,140.5,637.9,140.2,636.8z M142.4,630c0.8-0.7,1.9-1.2,2.9-1.3l0.2,1   c-0.9,0.2-1.8,0.6-2.5,1.1L142.4,630z M143.5,641l0.5-0.9c0.8,0.4,1.7,0.7,2.6,0.7v1C145.5,641.7,144.4,641.5,143.5,641z    M146.8,640.7c0.9,0,1.8-0.3,2.6-0.8l0.5,0.9c-0.9,0.6-2,0.9-3.1,0.9L146.8,640.7z M147.4,629.6l0.1-1c1.1,0.2,2.1,0.6,3,1.2   l-0.6,0.8C149.2,630.1,148.3,629.7,147.4,629.6z M150.8,638.8c0.6-0.7,1-1.5,1.2-2.4l1,0.2c-0.2,1.1-0.7,2.1-1.4,2.9L150.8,638.8z    M151.2,631.9l0.8-0.6c0.6,0.9,1,1.9,1.1,3l-1,0.1C152,633.6,151.7,632.7,151.2,631.9z"/></g></g><g><circle class="st4" cx="173.6" cy="772.7" r="3.5"/><g><path class="st4" d="M167,772.2c0.1-1.1,0.4-2.1,1-3.1l0.8,0.5c-0.5,0.8-0.8,1.7-0.8,2.6L167,772.2z M167.2,774.4l1-0.3   c0.2,0.9,0.7,1.7,1.3,2.4l-0.7,0.7C168,776.4,167.5,775.4,167.2,774.4z M169.4,767.6c0.8-0.7,1.9-1.2,2.9-1.3l0.2,1   c-0.9,0.2-1.8,0.6-2.5,1.1L169.4,767.6z M170.5,778.5l0.5-0.9c0.8,0.4,1.7,0.7,2.6,0.7v1C172.5,779.3,171.4,779,170.5,778.5z    M173.8,778.3c0.9,0,1.8-0.3,2.6-0.8l0.5,0.9c-0.9,0.6-2,0.9-3.1,0.9L173.8,778.3z M174.4,767.2l0.1-1c1.1,0.2,2.1,0.6,3,1.2   l-0.6,0.8C176.2,767.7,175.3,767.3,174.4,767.2z M177.8,776.3c0.6-0.7,1-1.5,1.2-2.4l1,0.2c-0.2,1.1-0.7,2.1-1.4,2.9L177.8,776.3z    M178.2,769.5l0.8-0.6c0.6,0.9,1,1.9,1.1,3l-1,0.1C179,771.2,178.7,770.3,178.2,769.5z"/></g></g><g><g><g><circle class="st5" cx="291.1" cy="553.9" r="19"/><path class="st6" d="M275,544c7.7-0.1,19.3-0.8,29.2-3.8c2,1.9,3.6,4.3,4.7,6.9c-6.6,2-19.9,5-36.5,4.4    C272.6,548.8,273.6,546.2,275,544z"/><path class="st7" d="M272.1,554.2c0,0.8,0.1,1.7,0.2,2.5c17.6,1.4,32.3-2.1,37.7-3.7c-0.1-1.2-0.2-2.3-0.5-3.4    C296.8,553.9,278.9,554.2,272.1,554.2z"/><g><path class="st6" d="M308.1,562.3c1-2,1.6-4.1,1.8-6.4c-14,3.5-28.9,3.8-37,3.6c0.8,2.6,2.1,4.9,3.8,6.9     c-0.1-0.1-0.3-0.3-0.4-0.4C286,565.4,297.3,564.3,308.1,562.3z"/></g></g><path class="st7" d="M308.1,562.3C308.1,562.3,308.1,562.3,308.1,562.3c-10.8,2.1-22.1,3.1-31.7,3.6c0.1,0.2,0.3,0.3,0.4,0.4   c0.2,0.2,0.3,0.4,0.5,0.5c0.1,0.1,0.3,0.3,0.4,0.4c0.2,0.2,0.4,0.4,0.6,0.6c0.2,0.2,0.4,0.3,0.6,0.5c0.2,0.2,0.4,0.3,0.6,0.5   c0.1,0.1,0.3,0.2,0.5,0.3c0.2,0.2,0.5,0.3,0.7,0.5c0.1,0.1,0.2,0.2,0.4,0.2c0.3,0.2,0.7,0.4,1,0.6c0.1,0.1,0.3,0.1,0.4,0.2   c0.3,0.1,0.5,0.3,0.8,0.4c0.1,0.1,0.2,0.1,0.4,0.2c0.4,0.2,0.8,0.3,1.2,0.5c0.1,0,0.2,0.1,0.4,0.1c0.3,0.1,0.7,0.2,1,0.3   c0.1,0,0.2,0.1,0.4,0.1c0.4,0.1,0.9,0.2,1.3,0.3c0.1,0,0.2,0,0.2,0c0.4,0.1,0.8,0.1,1.2,0.1c0.1,0,0.3,0,0.4,0   c0.5,0,0.9,0.1,1.4,0.1c0.4,0,0.8,0,1.2,0c0.1,0,0.2,0,0.3,0c0.4,0,0.8-0.1,1.2-0.1c0,0,0,0,0.1,0c0.4-0.1,0.8-0.1,1.1-0.2   c0.1,0,0.2,0,0.3-0.1c0.4-0.1,0.8-0.2,1.2-0.3c0,0,0.1,0,0.1,0c0.4-0.1,0.7-0.2,1.1-0.4c0.1,0,0.1-0.1,0.2-0.1   c0.4-0.1,0.7-0.3,1.1-0.5c0,0,0,0,0.1,0c0.3-0.2,0.7-0.3,1-0.5c0.1,0,0.1-0.1,0.2-0.1c0.4-0.2,0.7-0.4,1-0.6c0,0,0,0,0.1,0   c0.3-0.2,0.7-0.4,1-0.7c0,0,0.1,0,0.1-0.1c0.3-0.2,0.7-0.5,1-0.8c0,0,0,0,0,0c0.3-0.3,0.6-0.6,0.9-0.8c0,0,0,0,0,0   c0.3-0.3,0.6-0.6,0.9-0.9c0,0,0,0,0,0C306.4,565.3,307.4,563.8,308.1,562.3z"/><path class="st8" d="M297.3,539.5c0.1,0.6-2.1,1.3-5,1.7c-2.8,0.4-5.2,0.3-5.2-0.3c-0.1-0.6,2.2-1,5-1.4   C294.9,539.2,297.2,538.9,297.3,539.5z"/><path class="st8" d="M288.6,538.3c0.1,0.4-1.4,0.9-3.2,1.1c-1.8,0.3-3.4,0.2-3.4-0.2c-0.1-0.4,1.4-0.6,3.3-0.9   C287.1,538.1,288.5,537.9,288.6,538.3z"/><path class="st8" d="M285.3,548.9c0,0.6-2.2,1.1-5.1,1.3c-2.8,0.1-5.2-0.2-5.2-0.8c0-0.6,2.3-0.8,5.1-0.9   C282.9,548.3,285.2,548.3,285.3,548.9z"/><path class="st8" d="M302.6,566.5c0.1,0.6-2.1,1.4-4.9,1.9c-2.8,0.5-5.2,0.4-5.2-0.2c-0.1-0.6,2.2-1,5-1.5   C300.2,566.2,302.5,565.9,302.6,566.5z"/><path class="st8" d="M294.8,545.1c0,0.4-1.3,0.9-3.1,1.1c-1.8,0.2-3.2,0.1-3.3-0.2c0-0.4,1.4-0.6,3.1-0.9   C293.3,544.9,294.7,544.7,294.8,545.1z"/><path class="st8" d="M289,561.7c0,0.4-1.4,0.8-3.1,1c-1.8,0.2-3.2,0.1-3.3-0.3c0-0.4,1.4-0.6,3.1-0.8   C287.5,561.4,289,561.3,289,561.7z"/><path class="st8" d="M306.3,545.2c0.1,0.4-1.5,1.2-3.6,1.6c-2.1,0.5-3.8,0.5-3.9,0.1c-0.1-0.4,1.6-0.9,3.6-1.4   C304.5,545.1,306.2,544.8,306.3,545.2z"/><path class="st8" d="M303.9,553c0.1,0.4-1.6,1.1-3.9,1.6c-2.2,0.4-4.1,0.4-4.2,0c-0.1-0.4,1.7-0.9,3.9-1.3   C302,552.8,303.8,552.6,303.9,553z"/></g><g><path class="st9" d="M306.4,542.7c-6,8.5-17.5,22.4-29.4,23.9c3.5,3.9,8.5,6.3,14.1,6.3c10.5,0,19-8.5,19-19   C310.1,549.7,308.7,545.8,306.4,542.7z"/><path class="st9" d="M310.1,553.5c-6.1,7.5-16.6,17-30,15.8c3.1,2.2,6.9,3.5,11,3.5c10.5,0,19-8.5,19-19   C310.1,553.8,310.1,553.7,310.1,553.5z"/></g><linearGradient id="SVGID_1_" gradientUnits="userSpaceOnUse" x1="268.2714" y1="633.9079" x2="276.1777" y2="648.4565" gradientTransform="matrix(0.8203 -0.1306 0.1524 0.8378 -34.3732 44.851)"><stop offset="0" style="stop-color:#FFFFFF"/><stop offset="1" style="stop-color:#FFFFFF;stop-opacity:0"/></linearGradient><path class="st10" d="M297.6,539.8c2.5,4.3-0.4,10.8-6.5,14.4c-6.1,3.6-13.1,3-15.7-1.3c-2.5-4.3,0.4-10.8,6.5-14.4  C288,534.8,295,535.4,297.6,539.8z"/><path class="st11" d="M291.9,539.2c1.5,2.6-0.5,6.6-4.5,8.9c-4,2.3-8.4,2.1-10-0.4c-1.5-2.6,0.5-6.6,4.5-8.9  C286,536.4,290.4,536.6,291.9,539.2z"/></g><g><g><path class="st6" d="M250.2,648.2c0,22.3-18,40.3-40.3,40.3c-22.3,0-40.3-18-40.3-40.3s18-40.3,40.3-40.3   C232.2,607.9,250.2,626,250.2,648.2z"/><g><path class="st5" d="M226.6,633.3c-3.3-1.5-3.9-2.7-7.5-2.4c-5.7,0.3-10.5,4.2-16.4,3.6c-6.3-0.6-11-3.3-17.6-1.8    c-4.2,1.2-4.5,1.2-9,0.6c-1.1-0.2-2.3-0.3-3.6-0.3c-1.9,4.7-3,9.9-3,15.3c0,22.3,18,40.3,40.3,40.3c22.3,0,40.3-18,40.3-40.3    c0-4.9-0.9-9.6-2.5-14C241.3,637.4,233.6,636.8,226.6,633.3z"/></g><g><path class="st12" d="M215,661.7c-4.2,2.4-8.4,1.8-13.1,2.7c-9.9,1.8-13.4-6-22.1-7.5c-3.3-0.6-5.7-0.6-9-1.8    c-0.2-0.1-0.4-0.1-0.6-0.2c3.2,19.1,19.8,33.6,39.7,33.6c22.3,0,40.3-18,40.3-40.3c0-0.2,0-0.4,0-0.5c-6.6,1.6-14,5.7-19.1,8    C225.4,658.4,220.6,658.7,215,661.7z"/></g><path class="st5" d="M182.5,618.7c0.8-0.7,1.6-1.5,2.5-2.1c1,0,2.2,0,2.2,0s3.5,0,3.8,0c0.3,0,9.6-0.1,9.6-0.1s1.8-0.2,2.1-0.2   c0.2,0,2.6,0.1,3.8,0.1c0.4,0,0.7,0,0.7,0c0,0-1.3,0.1-2.4,0.3c-1.1,0.2-2.5,0.5-2.8,0.6c-0.4,0.1-1,0-1.6,0.1   c-0.7,0.1-1.7,0.2-2.5,0.4c-0.8,0.2-2,0.1-2.7,0.3c-0.7,0.1-1.4,0.2-2.8,0.3c-1.4,0.1-4.2,0.3-5,0.3c-0.8,0-2.5,0-2.8,0   C184.2,618.7,183.4,618.7,182.5,618.7z"/><path class="st5" d="M233.4,679.6c-2.2-0.1-7.2-0.7-11.8-0.7c-4.6,0-9.9,0.4-9.9,0.4s4.6,0.7,6.7,0.7c2.1,0,3.5,0,4.6,0   c1,0,2.5,0.4,4,0.4c1.5,0.1,4.9-0.1,4.9-0.1s1-0.1,2.4-0.1c0.4-0.3,0.7-0.5,1.1-0.8C234.7,679.6,234,679.6,233.4,679.6z"/><path class="st5" d="M235.8,627.9c-0.4,0-1.7,0.2-2.9,0.3c-1.1,0.1-2.4,0.1-2.4,0.1c0,0,0.3,0,0.7,0.1c1.2,0.2,3.6,0.5,3.8,0.5   c0.3,0,2.1,0,2.1,0s5.9,0.5,8.5,0.7c-0.3-0.6-0.7-1.3-1-1.9c-0.8,0-1.3,0-1.8,0.1c-0.7,0.1-1.9-0.1-2.7,0   c-0.8,0.1-1.9,0.2-2.6,0.2C236.8,628,236.2,627.9,235.8,627.9z"/><path class="st5" d="M197.3,623c0,0,3.5,0.7,5.1,0.7c1.6,0,2.7,0,3.5,0c0.8,0,1.9,0.4,3,0.4c1.1,0.1,3.8-0.1,3.8-0.1   s5.1-0.4,6.8-0.6c1.7-0.2,2.8-0.1,4.3-0.2c1.5-0.1,1.7-0.1,3.2-0.1s2,0.2,3.4,0.2c1.3,0,1.6,0.1,3.1,0.1c1.5,0,1.8-0.2,2.3-0.2   c0.4,0,1,0,1.5-0.1c0.4-0.1-0.8-0.4-0.8-0.4s-1.6,0-1.8,0c-0.2,0-0.4,0-0.9-0.1c-0.4-0.1-1.3-0.1-1.3-0.1s-6-0.4-6.2-0.4   c-0.2,0-6,0-6.7,0c-0.7,0-4,1.1-5.7,1c-1.7-0.1-5.5-0.7-9-0.7C201.4,622.5,197.3,623,197.3,623z"/><g><path class="st6" d="M249.9,643.1c-1.3-0.1-3.2-0.3-3.3-0.3c-0.1,0-4.3,0.2-4.8,0.2c-0.5,0-2.8,1.3-4,1.3c-1.2,0-4-0.6-6.4-0.6    c-2.5,0.1-5.4,0.7-5.4,0.7s2.5,0.7,3.7,0.7c1.2,0,1.9-0.1,2.5-0.1c0.6,0,1.4,0.4,2.2,0.4c0.8,0,2.7-0.2,2.7-0.2s3.6-0.6,4.9-0.9    c1.2-0.3,2-0.2,3-0.4c1-0.2,1.2-0.1,2.3-0.1c1.1,0,1.5,0.2,2.4,0.2c0.1,0,0.2,0,0.3,0C250,643.8,249.9,643.5,249.9,643.1z"/><path class="st6" d="M179.5,642.6c0,0,3.5,0.7,5.1,0.7c1.6,0,2.7,0,3.5,0c0.8,0,1.9,0.4,3,0.4c1.1,0.1,3.8-0.1,3.8-0.1    s5.1-0.4,6.8-0.6c1.7-0.2,2.8-0.1,4.3-0.2c1.5-0.1,1.7-0.1,3.2-0.1s2,0.2,3.4,0.2c1.3,0,1.6,0.1,3.1,0.1c1.5,0,1.8-0.2,2.3-0.2    s1,0,1.5-0.1c0.4-0.1-0.8-0.4-0.8-0.4s-1.6,0-1.8,0c-0.2,0-0.4,0-0.9-0.1c-0.4-0.1-1.3-0.1-1.3-0.1s-6-0.4-6.2-0.4    c-0.2,0-6,0-6.7,0c-0.7,0-4,1.1-5.7,1c-1.7-0.1-5.5-0.7-9-0.7C183.6,642.1,179.5,642.6,179.5,642.6z"/><path class="st6" d="M213.1,655.7c0.9,0,1.2,0.2,2.1,0.2c0.8,0,1,0.1,1.9,0.1c0.9,0,1.1-0.2,1.4-0.2c0.3,0,0.6,0,0.9-0.1    c0.3-0.1-0.5-0.4-0.5-0.4s-1,0-1.1,0c-0.1,0-0.3,0-0.6-0.1c-0.3-0.1-0.8-0.1-0.8-0.1s-3.7-0.4-3.8-0.4c-0.1,0-3.7,0-4.1,0    s-2.4,1.1-3.5,1c-1-0.1-3.4-0.7-5.5-0.7c-2.1,0-4.6,0.4-4.6,0.4s2.1,0.7,3.1,0.7c1,0,1.7,0,2.1,0c0.5,0,1.2,0.4,1.9,0.4    c0.7,0.1,2.3-0.1,2.3-0.1s3.1-0.4,4.2-0.6c1.1-0.2,1.7-0.1,2.6-0.2C212,655.7,212.2,655.7,213.1,655.7z"/></g><path class="st5" d="M218,671.7c1.9-0.1,2.2-0.1,4.2-0.1c2,0,2.6,0.2,4.4,0.2c1.8,0,2.1,0.1,4,0.1c1.9,0,2.4-0.2,3-0.2   c0.6,0,1.3,0,1.9-0.1c0.6-0.1-1.1-0.4-1.1-0.4s-2.1,0-2.4,0c-0.3,0-0.6,0-1.2-0.1c-0.6-0.1-1.8-0.1-1.8-0.1s-7.9-0.4-8.1-0.4   c-0.2,0-7.9,0-8.7,0c-0.9,0-5.2,1.1-7.4,1c-2.2-0.1-7.2-0.7-11.8-0.7c-4.6,0-9.9,0.4-9.9,0.4s4.6,0.7,6.7,0.7c2.1,0,3.5,0,4.6,0   c1,0,2.5,0.4,4,0.4c1.5,0.1,4.9-0.1,4.9-0.1s6.7-0.4,9-0.6C214.7,671.7,216.1,671.8,218,671.7z"/><path class="st5" d="M246.3,661.3c-1.4,0.1-2.2,0.3-2.8,0.4c-0.7,0.2-1.9,0.2-2.7,0.4c-0.8,0.3-1.8,0.5-2.5,0.6   c-0.7,0.1-1.3,0.1-1.6,0.2c-0.4,0.1-1.7,0.5-2.8,0.7c-1.1,0.3-2.4,0.4-2.4,0.4c0,0,0.3,0,0.7,0c1.2,0,3.6-0.1,3.8-0.1   c0.3,0,2.1-0.3,2.1-0.3s7.5-0.5,9.2-0.6c0.3-0.6,0.5-1.3,0.7-1.9C247.4,661.2,246.8,661.2,246.3,661.3z"/><path class="st5" d="M193,680.9c0.7,0,1.3,0.1,1.6,0c0.4-0.1,1.7-0.3,2.9-0.4c1.1-0.2,2.4-0.2,2.4-0.2c0,0-0.3,0-0.7-0.1   c-1.2-0.1-3.6-0.3-3.8-0.3c-0.3,0-2.1,0.1-2.1,0.1s-6.2-0.2-8.6-0.3c0.8,0.6,1.6,1.2,2.4,1.8c0.3,0,0.5-0.1,0.7-0.1   c0.7-0.1,1.9,0,2.7-0.1C191.2,681,192.3,680.9,193,680.9z"/></g><g><path class="st9" d="M242.7,624.9c-12.3,17.7-37.4,48.9-63.1,49.9c7.4,8.4,18.2,13.8,30.3,13.8c22.3,0,40.3-18,40.3-40.3   C250.2,639.5,247.4,631.5,242.7,624.9z"/><path class="st9" d="M250.2,647c-12.8,16-35.9,37.6-65.4,32.7c6.9,5.5,15.6,8.8,25.2,8.8c22.3,0,40.3-18,40.3-40.3   C250.2,647.8,250.2,647.4,250.2,647z"/></g><linearGradient id="SVGID_2_" gradientUnits="userSpaceOnUse" x1="143.029" y1="710.7809" x2="161.5873" y2="744.9302" gradientTransform="matrix(0.8203 -0.1306 0.1524 0.8378 -34.3732 44.851)"><stop offset="0" style="stop-color:#FFFFFF"/><stop offset="1" style="stop-color:#FFFFFF;stop-opacity:0"/></linearGradient><path class="st13" d="M227.1,619c6,10.2-0.8,25.2-15.2,33.7c-14.4,8.4-30.8,7-36.8-3.1c-6-10.2,0.8-25.2,15.2-33.7  C204.7,607.4,221.1,608.8,227.1,619z"/><path class="st11" d="M213.9,617.7c3.6,6.1-1.1,15.4-10.5,20.9c-9.4,5.5-19.8,5-23.4-1c-3.6-6.1,1.1-15.4,10.5-20.9  C199.9,611.1,210.3,611.6,213.9,617.7z"/></g><g><path class="st14" d="M238.1,768.8c-18.4,2.3-32.9,7.8-32.4,12.3c0.5,4.5,15.7,6.3,34.1,4.1c18.4-2.3,32.9-7.8,32.4-12.3  C271.7,768.3,256.4,766.5,238.1,768.8z M239.3,783.9c-13,1.6-27,0.9-27.4-3.5c-0.4-4.5,13.1-8.6,26-10.2c13-1.6,27-0.9,27.4,3.5  C265.8,778.2,252.3,782.3,239.3,783.9z M238.3,771c-13.4,1.7-24.1,5.7-23.7,9c0.3,3.3,11.5,4.6,24.9,3c13.4-1.7,24.1-5.7,23.7-9  C262.9,770.6,251.7,769.3,238.3,771z M239.2,782c-9.5,1.2-19.7,0.7-20-2.6c-0.3-3.3,9.6-6.3,19-7.4c9.5-1.2,19.7-0.7,20,2.6  C258.6,777.9,248.7,780.9,239.2,782z"/><g><ellipse class="st15" cx="253.7" cy="781.6" rx="0.4" ry="0.2"/><g><path class="st16" d="M256.9,775.9c0,9.9-8,17.9-17.9,17.9c-9.9,0-17.9-8-17.9-17.9c0-9.9,8-17.9,17.9-17.9    C248.9,758,256.9,766,256.9,775.9z"/><g><path class="st15" d="M236.3,789c-1.8-0.5-3.4-0.2-5.2,0.3c-1.3,0.3-2.8-0.4-4.2-0.2c3.2,3,7.5,4.8,12.2,4.8     c3.5,0,6.7-1,9.4-2.7c-0.2-0.1-0.4-0.1-0.7-0.2c-1.8-0.5-3.7-0.5-5.5-0.8C240.3,789.8,238.3,789.4,236.3,789z"/><path class="st15" d="M250.2,778c-0.9-0.3-1.6-0.7-2.5-1c-1-0.3-2.2-0.2-3.3-0.3c-2.2-0.1-4.2-0.8-6.4-1.2     c-1.7-0.3-3.3,0.1-4.9,0.5c-1.1,0.3-2.1,0.6-3.2,0.6c-1.1,0.1-2.1-0.1-3.3,0.1c-1.8,0.3-3.6,0.6-5.4,0.9     c0.1,0.6,0.1,1.1,0.2,1.7c0.2,0,0.5-0.1,0.7-0.1c1.8-0.2,3.5-0.6,5.3-0.9c1.9-0.3,3.6,0,5.5-0.5c2.3-0.6,4.2-0.8,6.5-0.2     c1.9,0.5,3.7,0.7,5.6,0.8c1.1,0.1,2.1,0.1,3.2,0.5c0.8,0.3,1.6,0.7,2.5,0.9c1.6,0.4,3.4-0.2,5-0.7c0.3-0.1,0.6-0.2,0.9-0.2     c0.1-0.6,0.2-1.2,0.2-1.8C254.6,777.7,252.5,778.8,250.2,778z"/><path class="st17" d="M251.3,783.1c-2-0.5-4.1-0.3-6.1-0.8c-1.7-0.4-4-1.4-5.8-1c-0.6,0.2-1.2,0.4-1.7,0.8     c-0.7,0.4-1.9-0.3-2.7-0.1c-0.8,0.2-1.5,0.6-2.3,0.8c-0.8,0.3-2.1-0.4-2.9-0.6c-2-0.4-4.1,0.4-6,1c-0.3,0.1-0.6,0.2-1,0.3     c0.5,1.1,1.1,2.1,1.8,3c1.6-0.6,3.3-1.2,4.7-0.9c1.7,0.3,3,0.9,4.7,0.3c0.9-0.3,1.4-0.7,2.4-0.4c0.8,0.3,1.9,0,2.6-0.4     c0.7-0.4,0.9-0.6,1.8-0.4c1,0.2,1.9,0.4,2.8,0.7c2.1,0.6,4.1,0.6,6.2,0.9c1.1,0.1,2.1,0.5,3.1,0.9c0.7-0.9,1.3-1.8,1.9-2.8     C253.7,783.9,252.5,783.4,251.3,783.1z"/><path class="st18" d="M243.6,761.4c1.7-0.1,3.5-0.4,5.2-0.5c-2.8-1.8-6.1-2.9-9.7-2.9c-3.3,0-6.3,0.9-8.9,2.4     c1.6,0.2,3.1,0.3,4.4,0.5C236.8,761.1,240.6,761.6,243.6,761.4z"/><path class="st15" d="M223.6,766.8c1.6-0.4,3.3-0.6,4.9-0.7c1.6-0.1,3,0.1,4.6,0.3c1.8,0.2,3.6,0.2,5.5-0.1     c0.8-0.1,1.5-0.2,2.3-0.3c1.1-0.2,1.8,0.1,2.8,0.5c1.5,0.6,3.2,0.6,4.9,0.7c1.7,0,3.4,0.3,5.1,0.4c0.4,0,0.8,0,1.2,0     c-0.7-1.3-1.5-2.4-2.4-3.5c-1.3-0.1-2.6-0.3-3.9-0.4c-1.8,0-3.4-0.3-5-0.9c-1.8-0.7-3.7,0-5.5,0.2c-3.5,0.5-6.9-0.6-10.5-0.3     c-0.2,0-0.5,0-0.7,0.1C225.6,764,224.5,765.3,223.6,766.8z"/><path class="st17" d="M247.8,770.4c-2.1-0.5-4-1.1-6.2-1.2c-2.2,0-4.4,0-6.6,0.1c-1,0.1-2,0.3-3,0.6c-1.2,0.3-2.2,0.3-3.4,0.3     c-2.1-0.1-4.4,0-6.6,0.3c-0.1,0.3-0.2,0.6-0.2,0.9c2.3-0.3,4.6-0.4,6.8-0.3c1.8,0,3.1-0.2,4.8-0.7c2.2-0.6,4.8-0.3,7.1-0.4     c4.1-0.2,7.7,1.7,11.8,1.7c1.5,0,2.9,0,4.3,0.1c-0.1-0.3-0.1-0.6-0.2-0.9c-0.5-0.1-1.1-0.1-1.7-0.1     C252.3,771,250.1,771.1,247.8,770.4z"/></g><ellipse class="st15" cx="252.5" cy="773.9" rx="1" ry="0.6"/><ellipse class="st15" cx="227" cy="773.1" rx="1" ry="0.6"/><ellipse class="st15" cx="248.7" cy="781.5" rx="1" ry="0.6"/><ellipse class="st15" cx="236.4" cy="759.7" rx="1" ry="0.6"/><ellipse class="st15" cx="241.1" cy="788.6" rx="0.6" ry="0.4"/><ellipse class="st15" cx="240.8" cy="771.8" rx="0.6" ry="0.4"/><ellipse class="st15" cx="231.4" cy="780.3" rx="0.6" ry="0.4"/><ellipse class="st15" cx="248" cy="762.8" rx="0.4" ry="0.2"/><ellipse class="st15" cx="231.9" cy="761.7" rx="0.4" ry="0.2"/><ellipse class="st15" cx="234.4" cy="773" rx="0.4" ry="0.2"/><path class="st15" d="M246.2,774.8c0,0.1-0.2,0.2-0.4,0.2c-0.2,0-0.4-0.1-0.4-0.2c0-0.1,0.2-0.2,0.4-0.2    C246,774.6,246.2,774.7,246.2,774.8z"/><ellipse class="st15" cx="250" cy="768.4" rx="0.4" ry="0.2"/><path class="st15" d="M239.6,779.6c0,0.1-0.2,0.2-0.4,0.2c-0.2,0-0.4-0.1-0.4-0.2s0.2-0.2,0.4-0.2    C239.4,779.3,239.6,779.4,239.6,779.6z"/><ellipse class="st15" cx="236.2" cy="787.6" rx="0.4" ry="0.2"/><path class="st15" d="M247.1,788.4c0,0.1-0.2,0.2-0.4,0.2c-0.2,0-0.4-0.1-0.4-0.2c0-0.1,0.2-0.2,0.4-0.2    C246.9,788.2,247.1,788.3,247.1,788.4z"/><ellipse class="st15" cx="226" cy="780.7" rx="0.4" ry="0.2"/><path class="st15" d="M227.4,768.1c0,0.1-0.2,0.2-0.4,0.2c-0.2,0-0.4-0.1-0.4-0.2c0-0.1,0.2-0.2,0.4-0.2    C227.2,767.9,227.4,768,227.4,768.1z"/><path class="st15" d="M241.8,767.7c0,0.1-0.2,0.2-0.4,0.2c-0.2,0-0.4-0.1-0.4-0.2s0.2-0.2,0.4-0.2    C241.6,767.5,241.8,767.6,241.8,767.7z"/></g><g><path class="st9" d="M253.4,765.2c-5.8,8.2-16.6,21-27.8,22.5c3.3,3.7,8.1,6.1,13.5,6.1c9.9,0,17.9-8,17.9-17.9    C256.9,771.9,255.6,768.2,253.4,765.2z"/><path class="st9" d="M256.9,775.5c-5.9,7.1-15.8,15.9-28.4,14.9c2.9,2.1,6.6,3.4,10.5,3.4c9.9,0,17.9-8,17.9-17.9    C256.9,775.8,256.9,775.6,256.9,775.5z"/></g></g><path class="st14" d="M272.2,772.8c-0.3-2.9-6.5-4.7-15.8-5c0.2,0.7,0.4,1.3,0.7,2c4.8,0.6,8.1,1.8,8.3,4c0.4,4.5-13.1,8.6-26,10.2  c-13,1.6-27,0.9-27.4-3.5c-0.2-2.2,3-4.4,8-6.2c0-0.6,0.1-1.3,0.2-1.9c-9,2.6-14.7,5.9-14.4,8.7c0.5,4.5,15.7,6.3,34.1,4.1  C258.1,782.9,272.6,777.3,272.2,772.8z"/><path class="st14" d="M257.3,770.8c0,0,0,0.1,0,0.1c0.1,0.8,0.2,1.6,0.1,2.4c0.5,0.4,0.8,0.8,0.8,1.3c0.3,3.3-9.6,6.3-19,7.4  c-9.5,1.2-19.7,0.7-20-2.6c-0.1-0.8,0.4-1.5,1.3-2.2c-0.2-0.6-0.4-1.2-0.5-1.9c-3.5,1.5-5.5,3.1-5.4,4.6c0.3,3.3,11.5,4.6,24.9,3  c13.4-1.7,24.1-5.7,23.7-9C263.1,772.5,260.9,771.4,257.3,770.8z"/><g><linearGradient id="SVGID_3_" gradientUnits="userSpaceOnUse" x1="229.1297" y1="761.2969" x2="240.0033" y2="774.7247"><stop offset="0" style="stop-color:#FFFFFF"/><stop offset="1" style="stop-color:#FFFFFF;stop-opacity:0"/></linearGradient><path class="st19" d="M245,761.9c2.4,4.1-0.3,10.1-6.1,13.5c-5.7,3.4-12.3,2.8-14.7-1.2c-2.4-4.1,0.3-10.1,6.1-13.5   C236,757.3,242.6,757.8,245,761.9z"/><path class="st20" d="M239.7,761.4c1.4,2.4-0.5,6.2-4.2,8.4c-3.7,2.2-7.9,2-9.4-0.4c-1.4-2.4,0.5-6.2,4.2-8.4   C234.1,758.8,238.3,758.9,239.7,761.4z"/></g></g><g><ellipse transform="matrix(0.2298 -0.9732 0.9732 0.2298 107.5398 215.8782)" class="st21" cx="190.2" cy="40" rx="26.7" ry="26.7"/><g><path class="st22" d="M195.2,52.2c-3.7,0-8-0.2-8.4,0c-0.5,0.2-2.1,1.2-5.7,1.2c-3.6,0-7.1-1.6-9-1.9c-1.6-0.2-4.8-0.8-6.3-0.9   c2.1,4.8,5.6,8.8,9.9,11.6c4,0.1,8.4,0.2,10.4,0.1c3-0.1,13.7-0.7,20-1c3.2-2.4,5.8-5.4,7.7-9C210,52.4,198.3,52.2,195.2,52.2z"/><path class="st22" d="M165.3,30.3h0.2c0,0,3.5,0.5,3.9,0.5c0.3,0,4.8,0,4.8,0l4-0.1l14-0.3l4.8-0.4c0,0,6.1-0.4,6.5-0.4   s7,0.7,7.3,0.7c0.2,0,2.5-0.1,2.5-0.1l1.7-0.4c-0.8-2-1.9-3.9-3.2-5.7c-0.5,0-1-0.1-1.3-0.2c-1.3-0.2-3.8,0-5,0.1   c-1.2,0.1-17.3,0-17.3,0s-1.3,0.2-1.6,0.2c-0.3,0-4.6-0.2-4.8-0.2c-0.2-0.1-3.1-0.4-3.3-0.4c-0.2,0-2.8-0.2-3.2-0.5   c-0.5-0.2-1.6-0.2-1.6-0.2l-4.4,0.6C167.5,25.6,166.2,27.8,165.3,30.3z"/></g><g><path class="st16" d="M167.6,32.5h1.4l7.4-0.9c0,0,5.6-0.5,6.5-0.7c0.9-0.1,3.1-0.1,3.1-0.1s10.2-0.1,10.8-0.1   c0.5,0,7.3-0.4,7.3-0.4s4.1,0.1,4.6,0.1c0.5,0,4.4,0.5,5.1,0.7c0.4,0.1,1.1,0.1,1.8,0.2c-0.3-0.7-0.5-1.5-0.9-2.2   c-0.2,0-0.3,0-0.4,0c-0.7,0-2.1,0-2.6,0c-0.5,0-1,0-1.4,0c-0.4,0-6.9,0-6.9,0l-1.6-0.1c0,0-3-0.2-4.1-0.3c-1.1-0.1-2.9,0-3.4,0   c-0.5,0-4.3,0-4.9,0c-0.7,0-7.3,0.2-7.9,0.3c-0.7,0.1-2.7,0.2-3.5,0.3c-0.8,0.1-2.3,0-3.3,0c-1,0-1.9,0.1-1.9,0.1l-3.3,0.3l-3.7,0   c-0.3,0.7-0.5,1.3-0.7,2C166,32.2,167.6,32.5,167.6,32.5z"/><path class="st16" d="M203.6,60.2c0,0-5.6,0.5-6.5,0.7c-0.9,0.1-3.1,0.1-3.1,0.1s-10.2,0.1-10.8,0.1s-7.3,0.4-7.3,0.4   s-0.8,0-1.7,0c0.6,0.4,1.2,0.9,1.9,1.3c0.5,0,0.8,0,0.8,0l1.6,0.1c0,0,3,0.2,4.1,0.3c1.1,0.1,2.9,0,3.4,0c0.5,0,4.3,0,4.9,0   c0.7,0,7.3-0.2,7.9-0.3c0.7-0.1,2.7-0.2,3.5-0.3c0.5-0.1,1.3-0.1,2.1,0c1.3-0.8,2.5-1.8,3.7-2.8L203.6,60.2z"/><path class="st16" d="M212.4,51.5c-2,0-3.4,0-4.3,0s-3.6-0.1-6.1-0.3c-1.8-0.1-3.5-0.3-5.3-0.4c-1.7-0.1-3.3-0.2-5-0.3   c-5.7-0.3-11.5-1.2-17.2-0.9c-3.1,0.1-6.1,0.2-9.2,0.3c0.2,0.4,0.3,0.8,0.5,1.1c0.4,0,0.6,0,0.7,0c0.3,0,1.1,0.3,2.1,0.4   c1.5,0.3,3.1,0.4,4.5,0.9c2.9,1,5.8,2.6,9,2.3c1.3-0.1,2.6-0.2,3.9-0.6c2.1-0.6,4.1-1.1,6.3-1.2c2.2-0.1,4.3-0.1,6.5-0.1   c0,0,2.5,0,3.6,0c1.1,0,5.1,0.3,5.9,0.3c0.9,0,2.5,0.2,3.1,0.3c0.4,0.1,1.1,0.2,1.5,0.2c0.4-0.7,0.8-1.4,1.2-2.1   C213.7,51.5,213.1,51.5,212.4,51.5z M181,53.2c-1.3,0-2.3-0.6-2.3-1.2c0-0.6,1.1-1,2.4-1c1.3,0,2.3,0.6,2.3,1.2   C183.4,52.8,182.3,53.3,181,53.2z"/><path class="st16" d="M168.3,24.7c0.2,0,0.4,0,0.5,0c1.5-0.1,6.3,0,7.5,0c1.2,0,7.4,0.4,8.7,0.4c1.3,0,6.9,0.1,9.2,0.1   c2.3,0,5.7,1,12.5,1.1c2.2,0,4.4,0,6.3-0.1c-1.2-2-2.7-3.9-4.4-5.5c0,0,0,0-0.1,0c-2.2-0.1-4.2,0.1-6.4,0.3   c-3.2,0.3-6.4-0.2-9.6-0.4c-5.2-0.4-10.8-0.9-15.9-0.4c-1.7,0.1-3.4,0.4-5.1,0.6C170.4,22,169.2,23.3,168.3,24.7z M184.4,21.2   c3,0.1,5.5,0.8,5.4,1.6c0,0.8-2.5,1.4-5.5,1.3c-3-0.1-5.5-0.8-5.4-1.6C178.8,21.7,181.3,21.1,184.4,21.2z"/><path class="st16" d="M165,39.9c0.3,0,1.8,0.2,2.6,0.3c2.7,0.3,5.5,0.1,8.2,0.6c2.3,0.4,4.6,0.5,6.8,0.9c1.6,0.3,3,1.1,4.6,1.6   c4.3,1.5,8.9,1.6,13.4,0.7c2.1-0.5,4.2-1.3,6.3-1.9c2.1-0.6,4.2-0.8,6.3-1.1c0,0,2,0,3.6,0c0-0.3,0-0.6,0-1c0-0.3,0-0.7,0-1   c-2.3-0.2-4.5-0.2-6.8-0.4c-3.1-0.1-5.8-1.6-8.7-2.6c-2.3-0.8-4.7-1.4-7.1-1.4c-3.8-0.1-7.2,1.8-10.9,2.6   c-2.8,0.6-5.7,0.3-8.5,0.3c-3.5,0-7,0-10.5,0c-0.3,0-0.6,0-0.8,0c-0.1,0.8-0.1,1.6-0.1,2.4C164.2,39.9,164.9,39.9,165,39.9z    M194.9,37.1c3.4,0.1,6.1,1.5,6.1,3c-0.1,1.5-2.8,2.7-6.2,2.6c-3.4-0.1-6.1-1.5-6.1-3C188.8,38.2,191.5,37,194.9,37.1z"/></g><path class="st9" d="M169.1,56.4c6.1,7.9,16.5,12,26.9,9.6c14.4-3.2,23.4-17.5,20.2-31.9c-0.8-3.7-2.4-7.1-4.5-10  C205.2,34.3,187.1,59.8,169.1,56.4z"/><path class="st9" d="M170.5,58c6.2,6.8,15.9,10.2,25.5,8c13.6-3,22.4-15.9,20.7-29.4C209.5,47,192.8,65.8,170.5,58z"/><linearGradient id="SVGID_4_" gradientUnits="userSpaceOnUse" x1="261.0804" y1="8.5219" x2="271.8521" y2="28.343" gradientTransform="matrix(0.8183 -0.1424 0.1645 0.8356 -38.0175 51.144)"><stop offset="0" style="stop-color:#FFFFFF"/><stop offset="1" style="stop-color:#FFFFFF;stop-opacity:0"/></linearGradient><path class="st23" d="M197.8,19.2c3.6,5.8-0.3,14.7-8.5,19.7c-8.3,5-17.8,4.3-21.4-1.5c-3.6-5.8,0.3-14.7,8.5-19.7  C184.7,12.7,194.3,13.4,197.8,19.2z"/><path class="st11" d="M190.1,18.6c2.1,3.5-0.5,9-5.9,12.2c-5.4,3.3-11.5,3.1-13.6-0.4c-2.1-3.5,0.5-9,5.9-12.2  C181.9,14.9,188,15.1,190.1,18.6z"/></g><g><g><g><path class="st24" d="M234.9,180c-0.2,16.5-13.8,29.7-30.4,29.5c-16.5-0.2-29.7-13.8-29.5-30.4c0.2-16.5,13.8-29.7,30.4-29.5    C221.9,149.9,235.1,163.5,234.9,180z"/><g><path class="st25" d="M234.8,177.4c-2.3,0.1-4.5,0-6.7-0.5c-3.8-1-7.1-3-10.9-3.9c-5.1-1.2-10.6-1.4-15.8-0.9     c-5.2,0.5-10,2.7-15.1,3.3c-3.6,0.4-7.3,0.2-10.9,0c-0.2,1.2-0.3,2.5-0.3,3.7c0,0.6,0,1.3,0,1.9c1.6,0,3.2,0,4.7,0.1     c7.9,0.1,15.5,2.9,23.3,3.7c5.4,0.6,10.8,0.2,16.1-0.3c2.3-0.2,4.2-1.6,6.5-1.8c1.9-0.2,3.9-0.2,5.9-0.3c0.2,0,1.6,0,3.1,0     c0.1-0.8,0.1-1.6,0.1-2.4C234.9,179.1,234.8,178.3,234.8,177.4z"/><path class="st25" d="M232.6,190.9c-1.3,0.2-3.2,0.6-4,1c-1.3,0.6-5.6,1.2-6.9,1.6c-1.3,0.4-3.2,0.1-3.2,0.1s-9.2-0.1-9.7-0.1     c-0.5,0-5.7-1-7-1.7c-1.3-0.7-4.4-0.9-4.4-0.9l-10.3-1.6l-10.1,1c1.1,2.8,2.5,5.3,4.3,7.6c3.1,0.1,6.1,0.5,7.8,0.5     c1.8,0,5.6,0.5,7.5,1c1.9,0.5,3.5,0.2,4.3,0.2c0.8,0,8-0.2,14.5-0.4c6.5-0.2,3.8,0.1,5.1-0.2c1.3-0.3,3.3,0,4.9,0.1     c1.2,0,1.7,0,2.3,0C229.7,196.7,231.4,193.9,232.6,190.9z"/><path class="st25" d="M179.1,164.4c4.7-1.3,12.3-2.6,19.7-0.6c11.7,3.1,15.1,2.4,19.2,1.5c4.2-0.9,6.7-1,7.7-1c0.5,0,3,0,5,0.1     c-1.4-2.3-3.1-4.5-5-6.3c-0.6-0.1-1.2-0.1-1.7-0.1c-1.4,0-4-0.2-6.4-0.4c-2.4-0.2-7.2-0.9-7.9-0.9c-0.8,0-0.8-0.2-4-0.4     c-3.2-0.2-8.4-1.2-10.6-1.4c-2.2-0.2-3.7-0.6-6-0.7C185,156.7,181.6,160.3,179.1,164.4z"/></g><path class="st26" d="M220.3,178.8c0,2.4-5.2,4.2-11.6,4.1c-6.4-0.1-11.5-2.1-11.5-4.5c0-2.4,5.2-4.2,11.6-4.1    C215.2,174.4,220.3,176.4,220.3,178.8z"/><path class="st27" d="M215.2,178.7c0,1.3-2.9,2.4-6.5,2.3c-3.6-0.1-6.4-1.2-6.4-2.5c0-1.3,2.9-2.4,6.5-2.3    C212.4,176.3,215.2,177.4,215.2,178.7z"/><path class="st26" d="M217.7,161.6c-0.1,1.4-3.2,2.5-7.1,2.4c-3.9-0.1-7-1.4-6.9-2.9c0.1-1.4,3.2-2.5,7.1-2.4    C214.6,158.9,217.7,160.2,217.7,161.6z"/><path class="st27" d="M214.6,161.5c0,0.8-1.8,1.4-4,1.3c-2.2-0.1-3.9-0.8-3.9-1.6c0-0.8,1.8-1.4,4-1.3    C212.9,160,214.6,160.7,214.6,161.5z"/><path class="st27" d="M193.7,159.1c0,0.6-1.4,1.1-3.1,1c-1.7-0.1-3-0.6-3-1.2c0-0.6,1.4-1.1,3.1-1    C192.4,157.9,193.7,158.5,193.7,159.1z"/><path class="st26" d="M189.8,178.9c0,0.7-2.6,1.3-5.8,1.2c-3.2,0-5.8-0.7-5.8-1.4c0-0.7,2.6-1.3,5.8-1.2    C187.2,177.6,189.8,178.2,189.8,178.9z"/><path class="st26" d="M225.8,196.3c0,0.6-2.3,1.1-5.2,1.1c-2.8,0-5.1-0.6-5.1-1.2c0-0.6,2.3-1.1,5.2-1.1    C223.5,195.1,225.8,195.7,225.8,196.3z"/><path class="st27" d="M200.8,194.9c0,0.9-3.3,1.5-7.2,1.4c-4-0.1-7.2-0.9-7.1-1.8c0-0.9,3.3-1.5,7.2-1.4    C197.6,193.2,200.8,194,200.8,194.9z"/></g><path class="st28" d="M234,186.8c-0.2,0.6-0.3,1.3-0.5,1.9c-0.8,0-1.7,0-2.5,0c-1.9,0.1-3.6,0.7-5.5,0.9c-2.5,0.4-5.4,0.7-7.9,0.7   c-1.8,0-3.5-0.2-5.3-0.4c-1.5-0.1-3.1,0-4.5-0.3c-2.8-0.7-5.9-1.2-8.8-1.6c-3.6-0.5-7.3-1.2-10.9-1.5c-2.5-0.2-5.1-0.4-7.5-0.4   c-1.5,0-2.9,0-4.4,0.1c-0.1,0-0.3,0-0.4,0c-0.1-0.3-0.2-0.7-0.2-1c2.5,0,5.1,0.3,7.6,0.5c5,0.3,9.9,0.8,14.9,0.9   c2.6,0.1,5,0.8,7.6,1.1c1.8,0.3,3.4,0.5,5.2,0.4c2.8-0.1,5.7,0,8.5,0.1c2.6,0.1,5.2-0.2,7.7-0.2C229.4,188,231.7,187.4,234,186.8z    M184.9,169.6c2-0.3,3.8-0.6,5.9-0.6c3.8,0.1,7.6,0.2,11.4,0.3c5.9,0.2,11.8-0.5,17.7,0.5c2,0.3,4,1.1,6,1.2   c2.4,0.2,5.1-0.4,7.4,0.1c0.1,0,0.2,0,0.3,0c-0.2-0.8-0.5-1.5-0.8-2.3c-6.5,0.1-13.1-0.3-19.6-1c-3.4-0.4-6.9-0.9-10.3-1.1   c-7-0.4-14-0.2-21-0.3c-1.3,0-2.7,0-4-0.1c-0.7,1.4-1.3,2.9-1.8,4.5C179.1,170.6,182,170,184.9,169.6z M195.8,151.1l4.7,1.1   c0,0,3.3,0.1,3.6,0.1c0.3,0,5.2,0.6,5.6,0.6c0.5,0.1,4.6,1.1,4.9,1.1c0.3,0,2.9,0.3,3.4,0.3c0.5,0,2.4,0.1,3.2,0.2   c-4.6-3-10.1-4.8-15.9-4.9C202,149.6,198.8,150.1,195.8,151.1z M211.7,202.3c-0.2,0-2.6,0.2-3,0.3c-0.3,0.1-3.8,0.7-3.8,0.7   s-3.7-0.2-3.9-0.2c-0.2,0-3.5-0.1-4.5-0.1c-1-0.1-6.9-0.7-6.9-0.7l-4.4-0.1c5.2,4.5,11.9,7.3,19.2,7.4c7.3,0.1,14-2.4,19.2-6.6   c0,0,0,0,0,0s-4.1-0.4-4.4-0.4c-0.2,0-3.3,0-3.7-0.1C215.3,202.4,211.9,202.3,211.7,202.3z"/></g><g><path class="st9" d="M229.3,162.2c-8.7,12.8-28,37.1-47.3,36.6c5.4,6.4,13.5,10.6,22.5,10.7c16.5,0.2,30.1-13,30.4-29.5   C234.9,173.4,232.9,167.2,229.3,162.2z"/><path class="st9" d="M234.8,177.9c-9.2,11.9-27,29.1-49.9,24c5.2,4.7,12,7.5,19.6,7.7c16.5,0.2,30.1-13,30.4-29.5   C234.9,179.3,234.8,178.6,234.8,177.9z"/></g><linearGradient id="SVGID_5_" gradientUnits="userSpaceOnUse" x1="242.2575" y1="173.4419" x2="255.4433" y2="197.7052" gradientTransform="matrix(0.8203 -0.1306 0.1524 0.8378 -34.3732 44.851)"><stop offset="0" style="stop-color:#FFFFFF"/><stop offset="1" style="stop-color:#FFFFFF;stop-opacity:0"/></linearGradient><path class="st29" d="M216.2,156.6c4.2,7.2-0.6,17.9-10.8,23.9c-10.2,6-21.9,5-26.2-2.2c-4.2-7.2,0.6-17.9,10.8-23.9  C200.3,148.4,212,149.4,216.2,156.6z"/><path class="st11" d="M206.9,155.7c2.5,4.3-0.8,11-7.5,14.9c-6.6,3.9-14.1,3.6-16.6-0.7c-2.5-4.3,0.8-11,7.4-14.9  C196.9,151,204.3,151.4,206.9,155.7z"/></g><g><path class="st30" d="M313.2,310.7c-23.1,2.9-41.4,9.8-40.8,15.5c0.6,5.7,19.8,8,42.9,5.1c23.1-2.9,41.4-9.8,40.8-15.5  C355.5,310.2,336.3,307.9,313.2,310.7z M314.6,328.7c-14.2,1.8-29.5,1-30-3.9c-0.5-4.9,14.3-9.4,28.5-11.1c14.2-1.8,29.5-1,30,3.9  C343.6,322.4,328.8,326.9,314.6,328.7z"/><g><g><path class="st6" d="M339.4,317.3c0,14-11.4,25.4-25.4,25.4c-14,0-25.4-11.4-25.4-25.4c0-14,11.4-25.4,25.4-25.4    C328,291.8,339.4,303.2,339.4,317.3z"/><g><path class="st31" d="M325.4,304c-1.2-0.3-2.5-0.5-3.7-0.7c-2.8-0.5-5.7-1.1-8.5-1c-1.4,0-8,0.5-7,3.2c0.3,0.9,1.6,1.2,2.4,1.5     c2,0.7,4.1,1.1,6.2,0.8c1.4-0.2,2.7-0.8,4.1-0.9c1.6-0.1,3.3-0.1,4.9-0.1c0.3,0,1.6,0.1,2.8,0c1.1-0.1,2-0.3,1.8-1     C328.1,304.8,326.2,304.2,325.4,304z"/><path class="st22" d="M334.6,302.4c-4.6-6.4-12.1-10.6-20.6-10.6c-7.4,0-14,3.1-18.7,8.2c5.6-0.2,11.2-0.3,16.7-1.5     c1.5-0.3,3-0.8,4.5-0.8c3.5,0.1,6.8,1.7,10,2.9C328.7,301.5,331.9,302.7,334.6,302.4z"/><path class="st22" d="M332.9,321.7c-0.9-0.1-2-0.4-2.9-0.2c-0.7,0.1-1.9,0.9-1,1.6c0.3,0.2,1,0.2,1.3,0.3c2.1,0.4,4.2,0.7,6.3,1     c0.6,0.1,1.2,0.1,1.7,0.1c0.3-0.9,0.5-1.9,0.7-2.9C337,321.9,335,321.9,332.9,321.7z"/><path class="st22" d="M334,327.7c-1,0-10.9-1.8-11.3-0.5c-0.3,1.1-1.1,3.6-1.4,4.2c-0.3,0.7-2.7,1.5-2.7,1.5s-1.4-0.1-3.3,0.3     c-6.3,1.3-12.2-8.2-18.1-4c-1.1,0.8-3.7,0.5-4.8,0.9c-0.1,0-0.2,0.1-0.3,0.1c4.4,7.5,12.6,12.5,21.9,12.5c10.2,0,19-6,23-14.7     C336.1,327.9,335.1,327.8,334,327.7z"/><path class="st31" d="M308.6,322.6c-1.5,0-3-0.4-4.4-0.1c-0.8,0.2-2.3,0.9-1,1.7c0.8,0.5,1.9,0.2,2.8,0.4     c1.1,0.2,2.1,0.7,3.1,1.1c2.2,1,4.2,1.9,6.7,1.3c1.7-0.4,3.2-0.7,4.3-2.2c0.6-0.8,0.9-2.2,1.7-2.7c-1.2-0.7-2.7-0.2-3.9,0.1     C314.8,322.8,311.7,322.7,308.6,322.6z"/><path class="st5" d="M295.5,307c1,0,2,0.1,2.9-0.3c0.6-0.2,1.7-1.2,0.7-1.7c-0.3-0.1-1-0.1-1.3-0.1c-2-0.1-4.1-0.1-6.1,0     c-0.5,0.9-1,1.9-1.4,2.9C292,307.4,293.8,307.1,295.5,307z"/><path class="st5" d="M290,316.1c1.8,0.4,1.9,0.1,4.3,0.8c2.3,0.7,5.9,0.7,6.5,0.8c0.5,0.1,1.6,0.1,2.1,0.1c0.4,0,3.7,0,4.8,0     c1.1,0,7.8,0,8.4,0c0.5,0,4.1-0.3,5.2-0.4c1.1-0.1,3.8-0.3,3.8-0.3s0.3,0,3.2-0.4c2.9-0.4,6-0.9,7.3-0.3     c0.7,0.4,2.4,0.5,3.9,0.7c0-1.4-0.1-2.8-0.4-4.1l-6.4-1.7l-6.5,0.5c0,0-3.6,1.9-4.5,2.1c-1,0.3-2.3,0.1-3,0.1     c-0.7,0-4.4-0.3-4.4-0.3s-2.7-0.7-5.2-0.7c-2.5,0-8.1-0.3-8.9,0c-0.8,0.3-2.7,0.3-3.2,0.3c-0.4,0-6.2,0-8,0     c-0.1,0.8-0.2,1.6-0.3,2.5C288.9,315.9,289.3,315.9,290,316.1z"/></g><path class="st31" d="M306.1,309.7c0,0.6-1.4,1.1-3.2,1.1s-3.2-0.5-3.2-1.1c0-0.6,1.4-1.1,3.2-1.1S306.1,309.1,306.1,309.7z"/><path class="st31" d="M333.2,318.9c0,0.4-0.9,0.7-2,0.7s-2-0.3-2-0.7c0-0.4,0.9-0.7,2-0.7S333.2,318.5,333.2,318.9z"/><path class="st31" d="M296.9,320.5c0,0.4-0.9,0.7-2,0.7c-1.1,0-2-0.3-2-0.7c0-0.4,0.9-0.7,2-0.7    C295.9,319.8,296.9,320.1,296.9,320.5z"/><path class="st31" d="M335.4,308.4c0,0.3-0.8,0.6-1.8,0.6c-1,0-1.8-0.3-1.8-0.6c0-0.3,0.8-0.6,1.8-0.6    C334.7,307.7,335.4,308,335.4,308.4z"/><path class="st31" d="M319.9,330c0,0.3-0.8,0.6-1.8,0.6c-1,0-1.8-0.3-1.8-0.6c0-0.3,0.8-0.6,1.8-0.6    C319.1,329.3,319.9,329.6,319.9,330z"/><path class="st31" d="M299.4,301.9c0,0.3-0.8,0.6-1.8,0.6c-1,0-1.8-0.3-1.8-0.6c0-0.3,0.8-0.6,1.8-0.6    C298.6,301.3,299.4,301.6,299.4,301.9z"/></g><g><path class="st9" d="M294.3,333.4c4.7,5.7,11.8,9.3,19.7,9.3c14,0,25.4-11.4,25.4-25.4c0-5.8-1.9-11.1-5.1-15.3    C326.9,312.9,310.8,334,294.3,333.4z"/><path class="st9" d="M296.5,335.8c4.6,4.3,10.7,6.9,17.5,6.9c14,0,25.4-11.4,25.4-25.4c0-0.8,0-1.6-0.1-2.4    C331.6,325.2,316.4,340.4,296.5,335.8z"/></g><linearGradient id="SVGID_6_" gradientUnits="userSpaceOnUse" x1="343.7329" y1="356.3237" x2="354.7095" y2="376.5219" gradientTransform="matrix(0.8183 -0.1424 0.1645 0.8356 -38.0175 51.144)"><stop offset="0" style="stop-color:#FFFFFF"/><stop offset="1" style="stop-color:#FFFFFF;stop-opacity:0"/></linearGradient><path class="st32" d="M323,298c3.6,6-0.3,14.9-8.7,20.1c-8.4,5.1-18.2,4.4-21.8-1.5c-3.6-6,0.3-14.9,8.7-20.1   C309.7,291.4,319.4,292.1,323,298z"/><path class="st11" d="M315.2,297.4c2.2,3.6-0.5,9.1-6,12.5c-5.5,3.3-11.7,3.1-13.8-0.4c-2.2-3.6,0.5-9.1,6-12.5   C306.9,293.6,313.1,293.8,315.2,297.4z"/></g><path class="st30" d="M356.1,315.8c-0.3-3.2-6.6-5.3-16.1-6.1c0.1,1.6,0.1,3.2,0,4.8c1.9,0.7,3,1.7,3.2,3  c0.5,4.9-14.3,9.4-28.4,11.1c-14.2,1.8-29.5,1-30-3.9c-0.1-1.1,0.6-2.3,2-3.3c-0.5-1.5-0.6-3.2-0.6-4.8c-8.7,3-14,6.5-13.7,9.6  c0.6,5.7,19.8,8,42.9,5.1C338.4,328.5,356.7,321.5,356.1,315.8z"/></g><g><g><path class="st4" d="M58.4,25.5h2.9c2,0,3.5,0.7,3.5,2.8c0,2-1.5,3-3.5,3h-1.3v3.4h-1.6V25.5z M61.2,30c1.4,0,2-0.5,2-1.7   c0-1.1-0.7-1.5-2.1-1.5h-1.1V30H61.2z"/><path class="st4" d="M66.6,25.5h1.6v7.8H72v1.4h-5.4V25.5z"/><path class="st4" d="M75.4,25.5h1.9l3,9.2h-1.7l-1.4-4.9c-0.3-1-0.6-2-0.8-3h-0.1c-0.3,1-0.5,2.1-0.8,3l-1.4,4.9h-1.7L75.4,25.5z    M74.2,30.9h4.3v1.3h-4.3V30.9z"/><path class="st4" d="M81.4,25.5h1.7l2.8,5.1l0.9,2h0.1c-0.1-0.9-0.2-2.1-0.2-3.1v-4h1.5v9.2h-1.7l-2.8-5.2l-0.9-1.9h-0.1   c0.1,1,0.2,2.1,0.2,3.1v4h-1.5V25.5z"/><path class="st4" d="M90.6,25.5h5.5v1.4h-3.9v2.3h3.3v1.4h-3.3v2.7h4v1.4h-5.7V25.5z"/><path class="st4" d="M100,26.9h-2.6v-1.4h6.9v1.4h-2.6v7.8H100V26.9z"/><path class="st4" d="M108.4,33.3h2v-5.8h-1.6v-1c0.9-0.2,1.5-0.4,2.1-0.7h1.2v7.6h1.8v1.3h-5.4V33.3z"/></g></g><text transform="matrix(1 0 0 1 72.2141 56.6066)" class="st4 st33 st34">Mint Day</text><g><linearGradient id="SVGID_7_" gradientUnits="userSpaceOnUse" x1="62.2493" y1="56.107" x2="62.2493" y2="50.3694"><stop offset="0" style="stop-color:#9E1F63"/><stop offset="1" style="stop-color:#363795"/></linearGradient><path class="st35" d="M65.1,53.2c0,1.6-1.3,2.9-2.9,2.9c-1.6,0-2.9-1.3-2.9-2.9s1.3-2.9,2.9-2.9C63.8,50.4,65.1,51.7,65.1,53.2z"/><linearGradient id="SVGID_8_" gradientUnits="userSpaceOnUse" x1="62.2493" y1="56.107" x2="62.2493" y2="50.3694"><stop offset="0" style="stop-color:#9E1F63"/><stop offset="1" style="stop-color:#363795"/></linearGradient><path class="st36" d="M65.1,53.2c0,1.6-1.3,2.9-2.9,2.9c-1.6,0-2.9-1.3-2.9-2.9s1.3-2.9,2.9-2.9C63.8,50.4,65.1,51.7,65.1,53.2z"/><linearGradient id="SVGID_9_" gradientUnits="userSpaceOnUse" x1="62.2493" y1="56.107" x2="62.2493" y2="50.3694"><stop offset="0" style="stop-color:#9E1F63"/><stop offset="1" style="stop-color:#363795"/></linearGradient><path class="st37" d="M65.1,53.2c0,1.6-1.3,2.9-2.9,2.9c-1.6,0-2.9-1.3-2.9-2.9s1.3-2.9,2.9-2.9C63.8,50.4,65.1,51.7,65.1,53.2z"/><linearGradient id="SVGID_10_" gradientUnits="userSpaceOnUse" x1="62.2493" y1="58.2223" x2="62.2493" y2="48.2496"><stop offset="0" style="stop-color:#9E1F63"/><stop offset="1" style="stop-color:#363795"/></linearGradient><path class="st38" d="M62.3,48.2c-2.8,0-5,2.2-5,5c0,2.8,2.2,5,5,5c2.8,0,5-2.2,5-5C67.2,50.5,65,48.2,62.3,48.2z M62.3,57.2  c-2.2,0-4-1.8-4-4c0-2.2,1.8-4,4-4c2.2,0,4,1.8,4,4C66.2,55.4,64.5,57.2,62.3,57.2z"/></g><g><g><path class="st4" d="M58.8,170.8h2.9c2,0,3.5,0.7,3.5,2.8c0,2-1.5,3-3.5,3h-1.3v3.4h-1.6V170.8z M61.6,175.3c1.4,0,2-0.5,2-1.7   c0-1.1-0.7-1.5-2.1-1.5h-1.1v3.2H61.6z"/><path class="st4" d="M67,170.8h1.6v7.8h3.8v1.4H67V170.8z"/><path class="st4" d="M75.8,170.8h1.9l3,9.2h-1.7l-1.4-4.9c-0.3-1-0.6-2-0.8-3h-0.1c-0.3,1-0.5,2.1-0.8,3l-1.4,4.9h-1.7L75.8,170.8   z M74.6,176.2h4.3v1.3h-4.3V176.2z"/><path class="st4" d="M81.8,170.8h1.7l2.8,5.1l0.9,2h0.1c-0.1-0.9-0.2-2.1-0.2-3.1v-4h1.5v9.2H87l-2.8-5.2l-0.9-1.9h-0.1   c0.1,1,0.2,2.1,0.2,3.1v4h-1.5V170.8z"/><path class="st4" d="M91,170.8h5.5v1.4h-3.9v2.3h3.3v1.4h-3.3v2.7h4v1.4H91V170.8z"/><path class="st4" d="M100.4,172.2h-2.6v-1.4h6.9v1.4H102v7.8h-1.6V172.2z"/><path class="st4" d="M108.3,179.1c2.5-2.4,4-4,4-5.3c0-0.9-0.5-1.5-1.5-1.5c-0.7,0-1.3,0.5-1.7,1l-0.9-0.9   c0.8-0.9,1.6-1.4,2.8-1.4c1.7,0,2.8,1.1,2.8,2.7c0,1.6-1.5,3.2-3.2,5.1c0.5,0,1.1-0.1,1.5-0.1h2.2v1.4h-6V179.1z"/></g></g><text transform="matrix(1 0 0 1 72.5948 201.9431)"><tspan x="0" y="0" class="st4 st33 st34">Reveal after</tspan><tspan x="0" y="12" class="st4 st33 st34">Sellout or</tspan><tspan x="0" y="24" class="st4 st33 st34">24 hours after</tspan><tspan x="0" y="36" class="st4 st33 st34">mint</tspan></text><g><linearGradient id="SVGID_11_" gradientUnits="userSpaceOnUse" x1="62.63" y1="201.4435" x2="62.63" y2="195.7059"><stop offset="0" style="stop-color:#9E1F63"/><stop offset="1" style="stop-color:#363795"/></linearGradient><path class="st39" d="M65.5,198.6c0,1.6-1.3,2.9-2.9,2.9c-1.6,0-2.9-1.3-2.9-2.9s1.3-2.9,2.9-2.9C64.2,195.7,65.5,197,65.5,198.6z"/><linearGradient id="SVGID_12_" gradientUnits="userSpaceOnUse" x1="62.63" y1="201.4435" x2="62.63" y2="195.7059"><stop offset="0" style="stop-color:#9E1F63"/><stop offset="1" style="stop-color:#363795"/></linearGradient><path class="st40" d="M65.5,198.6c0,1.6-1.3,2.9-2.9,2.9c-1.6,0-2.9-1.3-2.9-2.9s1.3-2.9,2.9-2.9C64.2,195.7,65.5,197,65.5,198.6z"/><linearGradient id="SVGID_13_" gradientUnits="userSpaceOnUse" x1="62.63" y1="201.4435" x2="62.63" y2="195.7059"><stop offset="0" style="stop-color:#9E1F63"/><stop offset="1" style="stop-color:#363795"/></linearGradient><path class="st41" d="M65.5,198.6c0,1.6-1.3,2.9-2.9,2.9c-1.6,0-2.9-1.3-2.9-2.9s1.3-2.9,2.9-2.9C64.2,195.7,65.5,197,65.5,198.6z"/><linearGradient id="SVGID_14_" gradientUnits="userSpaceOnUse" x1="62.63" y1="203.5587" x2="62.63" y2="193.5861"><stop offset="0" style="stop-color:#9E1F63"/><stop offset="1" style="stop-color:#363795"/></linearGradient><path class="st42" d="M62.6,193.6c-2.8,0-5,2.2-5,5c0,2.8,2.2,5,5,5c2.8,0,5-2.2,5-5C67.6,195.8,65.4,193.6,62.6,193.6z   M62.6,202.6c-2.2,0-4-1.8-4-4c0-2.2,1.8-4,4-4c2.2,0,4,1.8,4,4C66.6,200.8,64.8,202.6,62.6,202.6z"/></g><g><g><path class="st4" d="M145.4,296.9h2.9c2,0,3.5,0.7,3.5,2.8c0,2-1.5,3-3.5,3H147v3.4h-1.6V296.9z M148.2,301.4c1.4,0,2-0.5,2-1.7   c0-1.1-0.7-1.5-2.1-1.5H147v3.2H148.2z"/><path class="st4" d="M153.5,296.9h1.6v7.8h3.8v1.4h-5.4V296.9z"/><path class="st4" d="M162.3,296.9h1.9l3,9.2h-1.7l-1.4-4.9c-0.3-1-0.6-2-0.8-3h-0.1c-0.3,1-0.5,2.1-0.8,3L161,306h-1.7   L162.3,296.9z M161.1,302.3h4.3v1.3h-4.3V302.3z"/><path class="st4" d="M168.3,296.9h1.7l2.8,5.1l0.9,2h0.1c-0.1-0.9-0.2-2.1-0.2-3.1v-4h1.5v9.2h-1.7l-2.8-5.2l-0.9-1.9h-0.1   c0.1,1,0.2,2.1,0.2,3.1v4h-1.5V296.9z"/><path class="st4" d="M177.5,296.9h5.5v1.4h-3.9v2.3h3.3v1.4h-3.3v2.7h4v1.4h-5.7V296.9z"/><path class="st4" d="M186.9,298.2h-2.6v-1.4h6.9v1.4h-2.6v7.8h-1.6V298.2z"/><path class="st4" d="M194.7,304.9l0.8-1c0.5,0.5,1.2,1,2.1,1c1,0,1.6-0.5,1.6-1.3c0-0.9-0.6-1.5-2.6-1.5v-1.2   c1.7,0,2.3-0.6,2.3-1.4c0-0.7-0.5-1.2-1.3-1.2c-0.7,0-1.2,0.3-1.8,0.8l-0.8-1c0.8-0.7,1.6-1.1,2.7-1.1c1.7,0,2.9,0.9,2.9,2.4   c0,1-0.6,1.7-1.6,2v0.1c1.1,0.3,1.9,1,1.9,2.2c0,1.6-1.4,2.6-3.1,2.6C196.3,306.2,195.3,305.6,194.7,304.9z"/></g></g><text transform="matrix(1 0 0 1 159.1396 327.9694)"><tspan x="0" y="0" class="st4 st33 st34">Large portion </tspan><tspan x="0" y="12" class="st4 st33 st34">of mint and 100%</tspan><tspan x="0" y="24" class="st4 st33 st34">of secondary</tspan><tspan x="0" y="36" class="st4 st33 st34">profits goes to </tspan><tspan x="0" y="48" class="st4 st33 st34">community</tspan><tspan x="0" y="60" class="st4 st33 st34">treasury</tspan></text><g><linearGradient id="SVGID_15_" gradientUnits="userSpaceOnUse" x1="149.1748" y1="327.4698" x2="149.1748" y2="321.7322"><stop offset="0" style="stop-color:#9E1F63"/><stop offset="1" style="stop-color:#363795"/></linearGradient><path class="st43" d="M152,324.6c0,1.6-1.3,2.9-2.9,2.9c-1.6,0-2.9-1.3-2.9-2.9c0-1.6,1.3-2.9,2.9-2.9  C150.8,321.7,152,323,152,324.6z"/><linearGradient id="SVGID_16_" gradientUnits="userSpaceOnUse" x1="149.1748" y1="327.4698" x2="149.1748" y2="321.7322"><stop offset="0" style="stop-color:#9E1F63"/><stop offset="1" style="stop-color:#363795"/></linearGradient><path class="st44" d="M152,324.6c0,1.6-1.3,2.9-2.9,2.9c-1.6,0-2.9-1.3-2.9-2.9c0-1.6,1.3-2.9,2.9-2.9  C150.8,321.7,152,323,152,324.6z"/><linearGradient id="SVGID_17_" gradientUnits="userSpaceOnUse" x1="149.1748" y1="327.4698" x2="149.1748" y2="321.7322"><stop offset="0" style="stop-color:#9E1F63"/><stop offset="1" style="stop-color:#363795"/></linearGradient><path class="st45" d="M152,324.6c0,1.6-1.3,2.9-2.9,2.9c-1.6,0-2.9-1.3-2.9-2.9c0-1.6,1.3-2.9,2.9-2.9  C150.8,321.7,152,323,152,324.6z"/><linearGradient id="SVGID_18_" gradientUnits="userSpaceOnUse" x1="149.1748" y1="329.5851" x2="149.1748" y2="319.6124"><stop offset="0" style="stop-color:#9E1F63"/><stop offset="1" style="stop-color:#363795"/></linearGradient><path class="st46" d="M149.2,319.6c-2.8,0-5,2.2-5,5c0,2.8,2.2,5,5,5c2.8,0,5-2.2,5-5C154.2,321.8,151.9,319.6,149.2,319.6z   M149.2,328.6c-2.2,0-4-1.8-4-4c0-2.2,1.8-4,4-4c2.2,0,4,1.8,4,4C153.2,326.8,151.4,328.6,149.2,328.6z"/></g><g><g><path class="st4" d="M116.3,531.4h2.9c2,0,3.5,0.7,3.5,2.8c0,2-1.5,3-3.5,3h-1.3v3.4h-1.6V531.4z M119.1,535.9c1.4,0,2-0.5,2-1.7   c0-1.1-0.7-1.5-2.1-1.5h-1.1v3.2H119.1z"/><path class="st4" d="M124.4,531.4h1.6v7.8h3.8v1.4h-5.4V531.4z"/><path class="st4" d="M133.2,531.4h1.9l3,9.2h-1.7l-1.4-4.9c-0.3-1-0.6-2-0.8-3h-0.1c-0.3,1-0.5,2.1-0.8,3l-1.4,4.9h-1.7   L133.2,531.4z M132,536.8h4.3v1.3H132V536.8z"/><path class="st4" d="M139.2,531.4h1.7l2.8,5.1l0.9,2h0.1c-0.1-0.9-0.2-2.1-0.2-3.1v-4h1.5v9.2h-1.7l-2.8-5.2l-0.9-1.9h-0.1   c0.1,1,0.2,2.1,0.2,3.1v4h-1.5V531.4z"/><path class="st4" d="M148.4,531.4h5.5v1.4h-3.9v2.3h3.3v1.4h-3.3v2.7h4v1.4h-5.7V531.4z"/><path class="st4" d="M157.8,532.8h-2.6v-1.4h6.9v1.4h-2.6v7.8h-1.6V532.8z"/><path class="st4" d="M169.4,535c0-0.5,0-1.3,0.1-1.9h-0.1c-0.2,0.5-0.5,0.9-0.7,1.4l-1.6,2.5h5v1.3h-6.6v-1.1l3.5-5.5h1.9v8.9   h-1.5V535z"/></g></g><text transform="matrix(1 0 0 1 130.0485 562.5314)"><tspan x="0" y="0" class="st4 st33 st34">Weekly giveaways</tspan><tspan x="0" y="12" class="st4 st33 st34">start (prizes voted</tspan><tspan x="0" y="24" class="st4 st33 st34">by community)</tspan></text><g><linearGradient id="SVGID_19_" gradientUnits="userSpaceOnUse" x1="120.0837" y1="562.0318" x2="120.0837" y2="556.2943"><stop offset="0" style="stop-color:#9E1F63"/><stop offset="1" style="stop-color:#363795"/></linearGradient><path class="st47" d="M123,559.2c0,1.6-1.3,2.9-2.9,2.9c-1.6,0-2.9-1.3-2.9-2.9s1.3-2.9,2.9-2.9C121.7,556.3,123,557.6,123,559.2z"/><linearGradient id="SVGID_20_" gradientUnits="userSpaceOnUse" x1="120.0837" y1="562.0318" x2="120.0837" y2="556.2943"><stop offset="0" style="stop-color:#9E1F63"/><stop offset="1" style="stop-color:#363795"/></linearGradient><path class="st48" d="M123,559.2c0,1.6-1.3,2.9-2.9,2.9c-1.6,0-2.9-1.3-2.9-2.9s1.3-2.9,2.9-2.9C121.7,556.3,123,557.6,123,559.2z"/><linearGradient id="SVGID_21_" gradientUnits="userSpaceOnUse" x1="120.0837" y1="562.0318" x2="120.0837" y2="556.2943"><stop offset="0" style="stop-color:#9E1F63"/><stop offset="1" style="stop-color:#363795"/></linearGradient><path class="st49" d="M123,559.2c0,1.6-1.3,2.9-2.9,2.9c-1.6,0-2.9-1.3-2.9-2.9s1.3-2.9,2.9-2.9C121.7,556.3,123,557.6,123,559.2z"/><linearGradient id="SVGID_22_" gradientUnits="userSpaceOnUse" x1="120.0837" y1="564.1471" x2="120.0837" y2="554.1744"><stop offset="0" style="stop-color:#9E1F63"/><stop offset="1" style="stop-color:#363795"/></linearGradient><path class="st50" d="M120.1,554.2c-2.8,0-5,2.2-5,5c0,2.8,2.2,5,5,5c2.8,0,5-2.2,5-5C125.1,556.4,122.8,554.2,120.1,554.2z   M120.1,563.2c-2.2,0-4-1.8-4-4c0-2.2,1.8-4,4-4c2.2,0,4,1.8,4,4C124.1,561.4,122.3,563.2,120.1,563.2z"/></g><g><g><path class="st4" d="M30.9,630.3h2.9c2,0,3.5,0.7,3.5,2.8c0,2-1.5,3-3.5,3h-1.3v3.4h-1.6V630.3z M33.7,634.7c1.4,0,2-0.5,2-1.7   c0-1.1-0.7-1.5-2.1-1.5h-1.1v3.2H33.7z"/><path class="st4" d="M39,630.3h1.6v7.8h3.8v1.4H39V630.3z"/><path class="st4" d="M47.8,630.3h1.9l3,9.2H51l-1.4-4.9c-0.3-1-0.6-2-0.8-3h-0.1c-0.3,1-0.5,2.1-0.8,3l-1.4,4.9h-1.7L47.8,630.3z    M46.6,635.7h4.3v1.3h-4.3V635.7z"/><path class="st4" d="M53.9,630.3h1.7l2.8,5.1l0.9,2h0.1c-0.1-0.9-0.2-2.1-0.2-3.1v-4h1.5v9.2h-1.7l-2.8-5.2l-0.9-1.9h-0.1   c0.1,1,0.2,2.1,0.2,3.1v4h-1.5V630.3z"/><path class="st4" d="M63,630.3h5.5v1.4h-3.9v2.3H68v1.4h-3.3v2.7h4v1.4H63V630.3z"/><path class="st4" d="M72.4,631.6h-2.6v-1.4h6.9v1.4h-2.6v7.8h-1.6V631.6z"/><path class="st4" d="M80.2,638.3l0.8-1c0.5,0.5,1.2,1,2.1,1c1,0,1.7-0.6,1.7-1.7c0-1.1-0.7-1.7-1.6-1.7c-0.6,0-0.9,0.2-1.4,0.5   l-0.8-0.5l0.3-4.4h4.8v1.4h-3.4l-0.2,2.2c0.4-0.2,0.7-0.3,1.2-0.3c1.5,0,2.8,0.9,2.8,2.8c0,2-1.5,3.1-3.1,3.1   C81.8,639.6,80.9,639,80.2,638.3z"/></g></g><text transform="matrix(1 0 0 1 44.664 661.3607)"><tspan x="0" y="0" class="st4 st33 st34">Future collabs and</tspan><tspan x="0" y="12" class="st4 st33 st34">WL giveaways</tspan><tspan x="0" y="24" class="st4 st33 st34">exclusively for</tspan><tspan x="0" y="36" class="st4 st33 st34">holders</tspan></text><g><linearGradient id="SVGID_23_" gradientUnits="userSpaceOnUse" x1="34.6992" y1="660.8611" x2="34.6992" y2="655.1235"><stop offset="0" style="stop-color:#9E1F63"/><stop offset="1" style="stop-color:#363795"/></linearGradient><path class="st51" d="M37.6,658c0,1.6-1.3,2.9-2.9,2.9c-1.6,0-2.9-1.3-2.9-2.9c0-1.6,1.3-2.9,2.9-2.9  C36.3,655.1,37.6,656.4,37.6,658z"/><linearGradient id="SVGID_24_" gradientUnits="userSpaceOnUse" x1="34.6992" y1="660.8611" x2="34.6992" y2="655.1235"><stop offset="0" style="stop-color:#9E1F63"/><stop offset="1" style="stop-color:#363795"/></linearGradient><path class="st52" d="M37.6,658c0,1.6-1.3,2.9-2.9,2.9c-1.6,0-2.9-1.3-2.9-2.9c0-1.6,1.3-2.9,2.9-2.9  C36.3,655.1,37.6,656.4,37.6,658z"/><linearGradient id="SVGID_25_" gradientUnits="userSpaceOnUse" x1="34.6992" y1="660.8611" x2="34.6992" y2="655.1235"><stop offset="0" style="stop-color:#9E1F63"/><stop offset="1" style="stop-color:#363795"/></linearGradient><path class="st53" d="M37.6,658c0,1.6-1.3,2.9-2.9,2.9c-1.6,0-2.9-1.3-2.9-2.9c0-1.6,1.3-2.9,2.9-2.9  C36.3,655.1,37.6,656.4,37.6,658z"/><linearGradient id="SVGID_26_" gradientUnits="userSpaceOnUse" x1="34.6992" y1="662.9764" x2="34.6992" y2="653.0037"><stop offset="0" style="stop-color:#9E1F63"/><stop offset="1" style="stop-color:#363795"/></linearGradient><path class="st54" d="M34.7,653c-2.8,0-5,2.2-5,5c0,2.8,2.2,5,5,5c2.8,0,5-2.2,5-5C39.7,655.2,37.5,653,34.7,653z M34.7,662  c-2.2,0-4-1.8-4-4c0-2.2,1.8-4,4-4c2.2,0,4,1.8,4,4C38.7,660.2,36.9,662,34.7,662z"/></g><g><g><path class="st4" d="M59.8,770.3h2.9c2,0,3.5,0.7,3.5,2.8c0,2-1.5,3-3.5,3h-1.3v3.4h-1.6V770.3z M62.6,774.8c1.4,0,2-0.5,2-1.7   c0-1.1-0.7-1.5-2.1-1.5h-1.1v3.2H62.6z"/><path class="st4" d="M67.9,770.3h1.6v7.8h3.8v1.4h-5.4V770.3z"/><path class="st4" d="M76.8,770.3h1.9l3,9.2h-1.7l-1.4-4.9c-0.3-1-0.6-2-0.8-3h-0.1c-0.3,1-0.5,2.1-0.8,3l-1.4,4.9h-1.7L76.8,770.3   z M75.5,775.7h4.3v1.3h-4.3V775.7z"/><path class="st4" d="M82.8,770.3h1.7l2.8,5.1l0.9,2h0.1c-0.1-0.9-0.2-2.1-0.2-3.1v-4h1.5v9.2H88l-2.8-5.2l-0.9-1.9h-0.1   c0.1,1,0.2,2.1,0.2,3.1v4h-1.5V770.3z"/><path class="st4" d="M92,770.3h5.5v1.4h-3.9v2.3h3.3v1.4h-3.3v2.7h4v1.4H92V770.3z"/><path class="st4" d="M101.4,771.7h-2.6v-1.4h6.9v1.4H103v7.8h-1.6V771.7z"/><path class="st4" d="M109.4,775.3c0-3.5,1.7-4.9,3.5-4.9c1.1,0,1.8,0.5,2.4,1l-0.9,1c-0.3-0.4-0.9-0.7-1.4-0.7   c-1.2,0-2.1,0.9-2.1,3.6c0,2.2,0.7,3.1,1.7,3.1c0.7,0,1.3-0.6,1.3-1.7c0-1.1-0.5-1.6-1.4-1.6c-0.5,0-1.1,0.3-1.6,1.1l-0.1-1.1   c0.5-0.7,1.3-1.1,2-1.1c1.5,0,2.6,0.9,2.6,2.8c0,1.8-1.3,2.9-2.8,2.9C110.9,779.6,109.4,778.3,109.4,775.3z"/></g></g><text transform="matrix(1 0 0 1 73.5855 801.4186)" class="st4 st33 st34">Charitable events</text><g><linearGradient id="SVGID_27_" gradientUnits="userSpaceOnUse" x1="63.6207" y1="800.919" x2="63.6207" y2="795.1815"><stop offset="0" style="stop-color:#9E1F63"/><stop offset="1" style="stop-color:#363795"/></linearGradient><path class="st55" d="M66.5,798c0,1.6-1.3,2.9-2.9,2.9c-1.6,0-2.9-1.3-2.9-2.9c0-1.6,1.3-2.9,2.9-2.9  C65.2,795.2,66.5,796.5,66.5,798z"/><linearGradient id="SVGID_28_" gradientUnits="userSpaceOnUse" x1="63.6207" y1="800.919" x2="63.6207" y2="795.1815"><stop offset="0" style="stop-color:#9E1F63"/><stop offset="1" style="stop-color:#363795"/></linearGradient><path class="st56" d="M66.5,798c0,1.6-1.3,2.9-2.9,2.9c-1.6,0-2.9-1.3-2.9-2.9c0-1.6,1.3-2.9,2.9-2.9  C65.2,795.2,66.5,796.5,66.5,798z"/><linearGradient id="SVGID_29_" gradientUnits="userSpaceOnUse" x1="63.6207" y1="800.919" x2="63.6207" y2="795.1815"><stop offset="0" style="stop-color:#9E1F63"/><stop offset="1" style="stop-color:#363795"/></linearGradient><path class="st57" d="M66.5,798c0,1.6-1.3,2.9-2.9,2.9c-1.6,0-2.9-1.3-2.9-2.9c0-1.6,1.3-2.9,2.9-2.9  C65.2,795.2,66.5,796.5,66.5,798z"/><linearGradient id="SVGID_30_" gradientUnits="userSpaceOnUse" x1="63.6207" y1="803.0343" x2="63.6207" y2="793.0616"><stop offset="0" style="stop-color:#9E1F63"/><stop offset="1" style="stop-color:#363795"/></linearGradient><path class="st58" d="M63.6,793.1c-2.8,0-5,2.2-5,5c0,2.8,2.2,5,5,5c2.8,0,5-2.2,5-5C68.6,795.3,66.4,793.1,63.6,793.1z M63.6,802  c-2.2,0-4-1.8-4-4c0-2.2,1.8-4,4-4c2.2,0,4,1.8,4,4C67.6,800.3,65.8,802,63.6,802z"/></g><style xmlns="" class="darkreader darkreader--fallback">html, body, body :not(iframe) {
    background-color: #050709 !important;
    border-color: #7c7162 !important;
    color: #ffffff !important;
}</style></svg>